<?xml version="1.0" encoding="UTF-8"?>
<svg xmlns="http://www.w3.org/2000/svg" xmlns:xlink="http://www.w3.org/1999/xlink" width="31px" height="32px" viewBox="0 0 31 31" version="1.1">
<g id="surface1">
<path style=" stroke:none;fill-rule:nonzero;fill:rgb(0%,0%,0%);fill-opacity:1;" d="M 13.929688 0.109375 C 10.386719 0.527344 7.367188 1.917969 4.859375 4.296875 C -1.5 10.328125 -1.582031 20.382812 4.667969 26.515625 C 10.636719 32.375 20.238281 32.417969 26.21875 26.605469 C 31.585938 21.382812 32.484375 13.152344 28.363281 6.957031 C 25.957031 3.367188 22.34375 1.019531 17.996094 0.234375 C 17.382812 0.132812 14.546875 0.0429688 13.929688 0.109375 Z M 9.519531 8.328125 C 9.886719 8.492188 10.113281 8.765625 10.691406 9.769531 C 12.601562 13.054688 12.65625 13.125 13.25 13.125 C 13.578125 13.125 13.953125 12.929688 14.070312 12.707031 C 14.113281 12.625 14.367188 12 14.636719 11.320312 C 15.386719 9.402344 15.710938 8.882812 16.355469 8.515625 C 16.929688 8.1875 17.875 8.160156 18.503906 8.453125 C 18.886719 8.625 19.3125 9.082031 19.601562 9.632812 C 19.976562 10.332031 23.679688 19.859375 23.800781 20.445312 C 23.984375 21.296875 23.800781 21.820312 23.195312 22.152344 C 22.769531 22.390625 21.878906 22.402344 21.496094 22.1875 C 21.023438 21.917969 20.851562 21.542969 19.878906 18.660156 C 19.332031 17.0625 18.859375 15.792969 18.746094 15.609375 C 18.222656 14.796875 16.851562 14.769531 16.269531 15.554688 C 16.144531 15.730469 15.761719 16.757812 15.175781 18.480469 C 14.671875 19.945312 14.171875 21.328125 14.050781 21.546875 C 13.746094 22.125 13.378906 22.328125 12.65625 22.328125 C 11.660156 22.328125 11.109375 21.859375 11.101562 21.042969 C 11.101562 20.542969 11.230469 20.078125 11.71875 18.804688 C 12.0625 17.902344 12.105469 17.742188 12.042969 17.546875 C 12 17.421875 10.945312 15.847656 9.6875 14.035156 C 8.4375 12.222656 7.359375 10.640625 7.3125 10.507812 C 6.902344 9.546875 7.121094 8.777344 7.914062 8.382812 C 8.386719 8.144531 9.066406 8.125 9.519531 8.328125 Z M 9.519531 8.328125 "/>
</g>
</svg>
